<?xml version="1.0" encoding="UTF-8"?>
<svg xmlns="http://www.w3.org/2000/svg" xmlns:xlink="http://www.w3.org/1999/xlink" viewBox="0 0 150 150" width="150px" height="150px">
<g id="surface32537674">
<path style=" stroke:none;fill-rule:nonzero;fill:rgb(88.235295%,28.235295%,9.019608%);fill-opacity:1;" d="M 75 6 C 36.929688 6 6 36.929688 6 75 C 6 113.070312 36.929688 144 75 144 C 113.070312 144 144 113.070312 144 75 C 144 36.929688 113.070312 6 75 6 Z M 75 12 C 109.828125 12 138 40.171875 138 75 C 138 109.828125 109.828125 138 75 138 C 40.171875 138 12 109.828125 12 75 C 12 40.171875 40.171875 12 75 12 Z M 74.953125 20.960938 C 73.296875 20.984375 71.976562 22.34375 72 24 L 72 66.523438 C 68.40625 67.792969 66.003906 71.1875 66 75 C 66.003906 76.339844 66.304688 77.664062 66.882812 78.875 L 48.878906 96.878906 C 48.09375 97.632812 47.78125 98.75 48.054688 99.800781 C 48.328125 100.851562 49.148438 101.671875 50.199219 101.945312 C 51.25 102.21875 52.367188 101.90625 53.121094 101.121094 L 71.125 83.117188 C 72.335938 83.695312 73.660156 83.996094 75 84 C 79.96875 84 84 79.96875 84 75 C 83.996094 71.191406 81.589844 67.796875 78 66.527344 L 78 24 C 78.011719 23.1875 77.695312 22.410156 77.121094 21.835938 C 76.546875 21.261719 75.765625 20.945312 74.953125 20.960938 Z M 74.953125 20.960938 "/>
</g>
</svg>
