<?xml version="1.0" encoding="utf-8"?><svg xmlns="http://www.w3.org/2000/svg" xmlns:xlink="http://www.w3.org/1999/xlink"><symbol class="asvg-inline--fa afa-behance afa-w-18" viewBox="0 0 576 512" id="behance" xmlns="http://www.w3.org/2000/svg"><path fill="currentColor" d="M232 237.2c31.8-15.2 48.4-38.2 48.4-74 0-70.6-52.6-87.8-113.3-87.8H0v354.4h171.8c64.4 0 124.9-30.9 124.9-102.9 0-44.5-21.1-77.4-64.7-89.7zM77.9 135.9H151c28.1 0 53.4 7.9 53.4 40.5 0 30.1-19.7 42.2-47.5 42.2h-79v-82.7zm83.3 233.7H77.9V272h84.9c34.3 0 56 14.3 56 50.6 0 35.8-25.9 47-57.6 47zm358.5-240.7H376V94h143.7v34.9zM576 305.2c0-75.9-44.4-139.2-124.9-139.2-78.2 0-131.3 58.8-131.3 135.8 0 79.9 50.3 134.7 131.3 134.7 61.3 0 101-27.6 120.1-86.3H509c-6.7 21.9-34.3 33.5-55.7 33.5-41.3 0-63-24.2-63-65.3h185.1c.3-4.2.6-8.7.6-13.2zM390.4 274c2.3-33.7 24.7-54.8 58.5-54.8 35.4 0 53.2 20.8 56.2 54.8H390.4z"/></symbol><symbol viewBox="0 0 448 512" id="chevron-down-solid" xmlns="http://www.w3.org/2000/svg"><!--! Font Awesome Pro 6.0.0 by @fontawesome - https://fontawesome.com License - https://fontawesome.com/license (Commercial License) Copyright 2022 Fonticons, Inc.--><path d="M224 416c-8.188 0-16.38-3.125-22.62-9.375l-192-192c-12.5-12.5-12.5-32.75 0-45.25s32.75-12.5 45.25 0L224 338.8l169.4-169.4c12.5-12.5 32.75-12.5 45.25 0s12.5 32.75 0 45.25l-192 192C240.4 412.9 232.2 416 224 416z"/></symbol><symbol class="csvg-inline--fa cfa-chevron-left cfa-w-10" viewBox="0 0 320 512" id="chevron-left-solid" xmlns="http://www.w3.org/2000/svg"><path fill="currentColor" d="M34.52 239.03L228.87 44.69c9.37-9.37 24.57-9.37 33.94 0l22.67 22.67c9.36 9.36 9.37 24.52.04 33.9L131.49 256l154.02 154.75c9.34 9.38 9.32 24.54-.04 33.9l-22.67 22.67c-9.37 9.37-24.57 9.37-33.94 0L34.52 272.97c-9.37-9.37-9.37-24.57 0-33.94z"/></symbol><symbol class="dsvg-inline--fa dfa-chevron-right dfa-w-10" viewBox="0 0 320 512" id="chevron-right-solid" xmlns="http://www.w3.org/2000/svg"><path fill="currentColor" d="M285.476 272.971L91.132 467.314c-9.373 9.373-24.569 9.373-33.941 0l-22.667-22.667c-9.357-9.357-9.375-24.522-.04-33.901L188.505 256 34.484 101.255c-9.335-9.379-9.317-24.544.04-33.901l22.667-22.667c9.373-9.373 24.569-9.373 33.941 0L285.475 239.03c9.373 9.372 9.373 24.568.001 33.941z"/></symbol><symbol class="esvg-inline--fa efa-circle efa-w-16" viewBox="0 0 512 512" id="circle-regular" xmlns="http://www.w3.org/2000/svg"><path fill="currentColor" d="M256 8C119 8 8 119 8 256s111 248 248 248 248-111 248-248S393 8 256 8zm0 448c-110.5 0-200-89.5-200-200S145.5 56 256 56s200 89.5 200 200-89.5 200-200 200z"/></symbol><symbol class="fsvg-inline--fa ffa-circle ffa-w-16" viewBox="0 0 512 512" id="circle-solid" xmlns="http://www.w3.org/2000/svg"><path fill="currentColor" d="M256 8C119 8 8 119 8 256s111 248 248 248 248-111 248-248S393 8 256 8z"/></symbol><symbol viewBox="0 0 9.28 18" id="facebook" xmlns="http://www.w3.org/2000/svg"><g class="gcls-1"><g class="gcls-1"><path class="gcls-2" d="M2.71 9.95H0v-3.2h2.71V4.22a4.16 4.16 0 011.12-3.11 4.08 4.08 0 013-1.11 17.94 17.94 0 012.45.14v2.85H7.59a1.65 1.65 0 00-1.3.42A1.85 1.85 0 006 4.54v2.21h3l-.42 3.2H6V18H2.71z" fill="currentColor"/></g></g></symbol><symbol viewBox="0 0 15.75 15.75" id="instagram" xmlns="http://www.w3.org/2000/svg"><g class="hcls-1"><g class="hcls-1"><path class="hcls-2" d="M15.71 4.62v3.27c0 1.52 0 2.62-.05 3.29a7 7 0 01-.3 1.74 4.11 4.11 0 01-1 1.53 4.06 4.06 0 01-1.53 1 6.17 6.17 0 01-1.74.3c-.67 0-1.76.05-3.28.05s-2.62 0-3.29-.05a5.5 5.5 0 01-1.74-.33 3.76 3.76 0 01-1.53-.93 4.11 4.11 0 01-1-1.53 7 7 0 01-.3-1.74V7.93c0-1.52.05-2.68.1-3.31a7 7 0 01.3-1.74 4.11 4.11 0 011-1.53 4.06 4.06 0 011.53-1 6.17 6.17 0 011.74-.3C5.29.05 6.38 0 7.91 0s2.61 0 3.28.05a6.17 6.17 0 011.74.3 4.06 4.06 0 011.53 1 4.11 4.11 0 011 1.53 7 7 0 01.25 1.74zM14 12.51a7.59 7.59 0 00.28-1.9V7.31 5.13a7.21 7.21 0 00-.28-1.9 2.53 2.53 0 00-1.48-1.51 6.87 6.87 0 00-1.9-.28H5.13a7.22 7.22 0 00-1.9.28 2.53 2.53 0 00-1.51 1.51 7.21 7.21 0 00-.28 1.9v5.48a7.59 7.59 0 00.28 1.9 2.67 2.67 0 001.51 1.51 7.22 7.22 0 001.9.28h5.49a6.87 6.87 0 001.9-.28A2.67 2.67 0 0014 12.51zM7.88 3.83a4 4 0 012 .54 4.09 4.09 0 011.47 1.48 4 4 0 010 4 4.09 4.09 0 01-1.45 1.52 4.07 4.07 0 01-4.05 0 4.09 4.09 0 01-1.47-1.48 4 4 0 010-4 4.09 4.09 0 011.47-1.52 4 4 0 012.03-.54zm0 6.68a2.65 2.65 0 002.63-2.64 2.65 2.65 0 00-2.63-2.64 2.65 2.65 0 00-2.64 2.64 2.65 2.65 0 002.64 2.64zM13 3.62a.91.91 0 00-.28-.67 1 1 0 00-.67-.28.94.94 0 00-.66 1.62.88.88 0 00.66.28.83.83 0 00.65-.28 1.06 1.06 0 00.3-.67z" fill="currentColor"/></g></g></symbol><symbol class="isvg-inline--fa ifa-linkedin-in ifa-w-14" viewBox="0 0 448 512" id="linkedin" xmlns="http://www.w3.org/2000/svg"><path fill="currentColor" d="M100.28 448H7.4V148.9h92.88zM53.79 108.1C24.09 108.1 0 83.5 0 53.8a53.79 53.79 0 01107.58 0c0 29.7-24.1 54.3-53.79 54.3zM447.9 448h-92.68V302.4c0-34.7-.7-79.2-48.29-79.2-48.29 0-55.69 37.7-55.69 76.7V448h-92.78V148.9h89.08v40.8h1.3c12.4-23.5 42.69-48.3 87.88-48.3 94 0 111.28 61.9 111.28 142.3V448z"/></symbol><symbol viewBox="0 0 56 56" id="play-btn" xmlns="http://www.w3.org/2000/svg"><path data-name="Subtraction 2" d="M28 56A28.007 28.007 0 0117.1 2.2a28.007 28.007 0 0121.8 51.6A27.825 27.825 0 0128 56zm-5.478-38.957v21.913L41.391 28z" fill="#fff"/></symbol><symbol viewBox="0 0 12.617 12" id="red-star" xmlns="http://www.w3.org/2000/svg"><path data-name="Path 2500" d="M6.309 0L4.82 4.584H0l3.9 2.833L2.41 12l3.9-2.833L10.208 12 8.719 7.417l3.9-2.833H7.8L6.309 0z" fill="#f04141"/></symbol><symbol viewBox="0 0 512 512" id="twitter" xmlns="http://www.w3.org/2000/svg"><path fill="currentColor" d="M389.2 48h70.6L305.6 224.2 487 464H345L233.7 318.6 106.5 464H35.8l164.9-188.5L26.8 48h145.6l100.5 132.9L389.2 48zm-24.8 373.8h39.1L151.1 88h-42l255.3 333.8z"/></symbol><symbol viewBox="0 0 15.75 15.75" id="vimeo" xmlns="http://www.w3.org/2000/svg"><g class="mcls-1"><g class="mcls-1"><path class="mcls-2" d="M14.17 0a1.55 1.55 0 011.58 1.62v12.54a1.55 1.55 0 01-1.58 1.58H1.58a1.53 1.53 0 01-1.12-.45A1.52 1.52 0 010 14.16V1.62A1.52 1.52 0 01.46.45 1.53 1.53 0 011.58 0zm-.92 5.23q.11-2.25-1.65-2.28-2.36-.07-3.2 2.67a1.57 1.57 0 011.09-.14c.4.09.58.41.53.95a5 5 0 01-.77 1.67c-.47.74-.83 1.12-1.08 1.16s-.47-.3-.68-1a31.45 31.45 0 01-.63-3.34C6.64 3.62 6.11 3 5.24 3.09a2.29 2.29 0 00-1.16.6c-.31.23-.8.65-1.48 1.26l-.74.67.57.71a3.27 3.27 0 01.87-.53c.29 0 .56.33.81 1 .17.45.45 1.4.85 2.85l.35 1.37c.47 1.22 1 1.83 1.69 1.83 1.07 0 2.39-1 3.93-3s2.28-3.52 2.32-4.62z" fill="currentColor"/></g></g></symbol><symbol viewBox="0 0 19.2 13.5" id="youtube" xmlns="http://www.w3.org/2000/svg"><g class="ncls-1"><g class="ncls-1"><path class="ncls-2" d="M18.81 2.11a16.18 16.18 0 01.35 2.88v3.52a16.61 16.61 0 01-.35 2.92 2.45 2.45 0 01-.64 1.07 2.26 2.26 0 01-1.09.63 24.42 24.42 0 01-4.29.35h-3.2l-3.19.02a24.42 24.42 0 01-4.29-.35 2.26 2.26 0 01-1.09-.65 2.45 2.45 0 01-.64-1.05A16.61 16.61 0 01.03 8.5V6.74 4.98a16.18 16.18 0 01.35-2.87 2.41 2.41 0 01.64-1.09A2.26 2.26 0 012.11.39 24.42 24.42 0 016.4.04H12.79a24.42 24.42 0 014.29.35 2.26 2.26 0 011.09.63 2.41 2.41 0 01.64 1.09zM7.63 9.63l5-2.88-5-2.85z" fill="currentColor"/></g></g></symbol></svg>