<svg viewBox="0 0 150 149.2" xmlns="http://www.w3.org/2000/svg"><g fill="#fff"><path d="M75 1.3c-40.5 0-73.5 33-73.5 73.5s33 73.5 73.5 73.5 73.5-33 73.5-73.5S115.6 1.3 75 1.3zm0 144.9c-39.3 0-71.3-32-71.3-71.3S35.7 3.5 75 3.5s71.3 32 71.3 71.3c.1 39.4-31.9 71.4-71.3 71.4z"/><path d="M72.1 9.6s.1 0 0 0L64 68l7.4 3.3c-1.7-1.2-3.3-2.4-3.5-3.1 0-.1-.1-.2-.1-.3 0-.3 0-.6.1-.9.1-1.2 4.3-45.7 5.3-56.8 0-.2 0-.4.1-.5.1-1.3.2-2 .2-2l.1-.1c.7-.6 1.1-.9 1.3-1 .2-.1.3-.1.3-.1h.1L76 73l6.5-2.9s3-1.5 3.1-1.4-1.8 1.2-2.6 1.7l-1.5.8-1.4.7-3.6 1.9c1.5-.5 4.1-.9 6.1-1 2.3-.1 3.8 1 5.1 1.9.2.1 36.5 25.6 46.4 32.6 0 .2 0 .5-.1.8l-.1.9s-.9-.5-2.4-1.4c-2.4-1.4-5.9-3.4-6.1-3.5-.1 0-5.4-3.2-5.5-3.2-.2-.1-14.7-8.5-15-8.6-.6-.3-17.8-10.3-25.8-14.9l-3.4-1.9-.6 12.9c2.3 1 28.4 11.2 28.4 11.2L130 110c-11.6 18.1-31.9 30.1-55 30.1s-43.4-12-55-30.1c8.8-3.5 52.3-20.8 55-21.8h.1c-.1-.3-.1-1-.1-1l-.4-11.8-16.4 9.3c-17.1 9.9-41.3 23.9-42.9 24.8l.1.1c12.6 22 38.8 38 67.1 33.5 34.3-3.7 61.2-32.8 61.2-68.1 0-10.1-2.2-19.6-6.1-28.2-13.8-34.9-57.9-49.4-86.2-36.3C25.2 20.1 6.5 45.3 6.5 74.8c0 5.1.6 10.1 1.6 14.9 1.1 6.8 3.6 13.5 7.1 19.7 0-.6-.1-1.4 0-1.8s.9-.6 2.3-1.7c9.8-6.9 46.8-33.1 48.3-34 .6-.4 1.2-.6 1.9-.7h.5s.5.1.7.1.8.2 1 .2l-6-3.5-.2.2L17.1 105c-4.7-9-7.4-19.2-7.4-30.1 0-35 27.7-63.7 62.4-65.3-.1 0 0 0 0 0M83.7 53L76.6 9.6c35.3.8 63.7 29.8 63.7 65.3 0 10.8-2.7 21-7.4 30L94.8 75l-5.5-4.4-2.8-2.4z"/></g></svg>