<svg xmlns="http://www.w3.org/2000/svg" width="103.542" height="66.912"><path data-name="Path 2331" d="M44.168 12.43c.264.661.529 1.19.793 1.851 2.248-.132 4.628-.264 6.876-.264s4.5.132 6.744.264c.264-.661.529-1.19.793-1.851-2.513-.132-5.025-.264-7.67-.264-2.513 0-5.025.132-7.538.264zm1.322 2.909c.264.529.529 1.19.793 1.719 1.851-.132 3.7-.132 5.554-.132s3.7 0 5.422.132c.264-.661.529-1.19.793-1.851-2.116-.132-4.1-.132-6.215-.132s-4.232.132-6.347.264zm1.323 2.777c.264.661.661 1.455.926 2.116 1.322 0 2.777-.132 4.1-.132s2.777 0 4.1.132c.264-.661.661-1.455.926-2.116-1.719-.132-3.306-.132-5.025-.132s-3.438.132-5.025.132zm5.025-7.009c-2.777 0-5.422.132-8.2.264-.264-.661-.661-1.322-.926-1.984q4.562-.4 9.124-.4t9.124.4c-.264.661-.661 1.322-.926 1.984-2.777-.264-5.554-.264-8.2-.264z" fill="#fff"/><path data-name="Path 2332" d="M52.366 4.761c-1.851 1.19-3.306-.793-1.984-2.116a4.245 4.245 0 013.835-.793 4.4 4.4 0 013.57 4.232c.132 1.984-2.38-3.306-5.422-1.322zm8.066 2.909A8.521 8.521 0 0051.837 0a7.915 7.915 0 00-4.628 1.322 3.9 3.9 0 00-1.851 1.984c-.793 1.587.4 3.041 2.248 3.306s-2.116 1.322-3.7-1.719c-.132.264-.264.661-.4.926a7.488 7.488 0 00-.4 2.38c2.909-.264 5.818-.264 8.728-.264s5.818.132 8.6.264V7.67z" fill="#fff"/><path data-name="Path 2333" d="M74.053 57.92l-.926-1.719c-.264-.4-.4-.926-.661-1.322 0 .4-.132.926-.132 1.322l-.132 1.19-1.19-.529c-.4-.264-.793-.4-1.19-.661a5.361 5.361 0 00.661 1.19l.926 1.719h-.132c-.529.264-.926.4-1.455.661l-2.645-5.157c.529-.264 1.058-.4 1.587-.661l2.248 1.19.4-2.38a5.46 5.46 0 001.455-.926l2.645 5.157a3.959 3.959 0 01-1.058.529l-.4.4zm-6.876 3.041l-.793-1.058-1.984.661v1.322c-.529.132-1.058.264-1.719.4l.529-6.215c.529-.132 1.19-.4 1.719-.529l3.967 4.761a14.83 14.83 0 01-1.719.661zm-7.144 1.852l-1.19.132a4.5 4.5 0 01-1.322.132l-.926-5.818a33.054 33.054 0 003.835-.661l.264 1.322-2.116.4.132.793 1.851-.264.264 1.322-1.851.264.132.926 2.248-.4.264 1.322a2.817 2.817 0 01-1.587.529zm-5.686.661l-1.455-2.248h-.259l.132 2.248h-1.721l-.265-5.823h.926c.926 0 2.248-.132 2.38-.132s.4.132.529.132a1.786 1.786 0 011.058 1.587 1.45 1.45 0 01-1.058 1.587l1.587 2.38a4.2 4.2 0 01-1.851.264zm-4.628-3.967a2.9 2.9 0 00-1.587-.661 1.574 1.574 0 00-1.851 1.322c-.132.926.4 1.587 1.587 1.719a4.072 4.072 0 001.719-.4l-.132 1.719a.728.728 0 01-.661.264h-1.061c-.264 0-.529-.132-.793-.132a2.857 2.857 0 01-2.107-3.17 2.949 2.949 0 012.38-2.645 4.5 4.5 0 011.32-.132 3.861 3.861 0 011.19.264c.132 0 .264.132.4.264l-.4 1.587zm-8.066-1.719l-2.116-.661-.264.793 1.719.529-.4 1.322-1.719-.529-.264.926 2.248.661-.4 1.322a3.861 3.861 0 00-1.19-.264l-1.851-.529c-.264-.132-.529-.132-.793-.264l1.719-5.554c1.19.4 2.513.793 3.7 1.058l-.4 1.19zm-7.538.793a3.906 3.906 0 001.719.264l-.661 1.587a1.677 1.677 0 01-.793-.132c-.264-.132-.661-.132-.926-.264s-.4-.264-.661-.4a3.2 3.2 0 01-1.19-3.835 2.856 2.856 0 012.909-1.719 3.448 3.448 0 011.455.4 2.056 2.056 0 011.058.793l.264.264-.656 1.588a3.877 3.877 0 00-1.322-1.19 1.657 1.657 0 00-2.248.661c-.264.529 0 1.455 1.058 1.984zm-6.612-1.851l2.909-5.025a8.9 8.9 0 011.455.926l-2.775 5.02-1.587-.926zm46.285-10.579a36.381 36.381 0 01-22.084 7.405 36.672 36.672 0 01-22.083-7.405 71.411 71.411 0 00-13.488 6.744 51.731 51.731 0 0035.44 14.017 51.131 51.131 0 0035.44-14.017 62.187 62.187 0 00-13.225-6.744z" fill="#fff"/><path data-name="Path 2334" d="M53.688 58.978a4.676 4.676 0 00-.793-.132h-.265v1.19h.4a.991.991 0 00.661-.132.687.687 0 00.264-.529c0-.132-.132-.264-.264-.4z" fill="#fff"/><path data-name="Path 2335" d="M64.532 57.391v1.851l1.058-.4-.4-.529a5.6 5.6 0 01-.658-.922z" fill="#fff"/><path data-name="Path 2336" d="M39.539 44.828h2.248v.661h-1.455v.793h1.322v.661h-1.322v.793h1.587v.661h-2.38z" fill="#fff"/><path data-name="Path 2337" d="M42.58 47.473a2.51 2.51 0 001.19.4c.264 0 .529-.132.529-.4 0-.4-.4-.4-.793-.529a1.022 1.022 0 01-.926-1.058c0-.661.529-1.058 1.322-1.058a2.491 2.491 0 011.058.264v.793a2.11 2.11 0 00-1.058-.4.351.351 0 00-.4.4c0 .264.4.4.793.529a1.022 1.022 0 01.926 1.058c0 .661-.529 1.058-1.322 1.058a3.861 3.861 0 01-1.19-.264v-.793z" fill="#fff"/><path data-name="Path 2338" d="M46.68 45.489h-1.058v-.661h3.041v.661h-1.19v2.909h-.793z" fill="#fff"/><path data-name="Path 2339" d="M49.324 47.605a.351.351 0 01.4.4.422.422 0 01-.4.4.351.351 0 01-.4-.4c-.132-.264.132-.4.4-.4z" fill="#fff"/><path data-name="Path 2340" d="M52.895 45.754l-.793.264v-.661l1.587-.529v3.57h-.793z" fill="#fff"/><path data-name="Path 2341" d="M56.73 46.018a.529.529 0 10-.529.529.569.569 0 00.529-.529zm-1.322 2.38l.793-1.322h-.264a1.043 1.043 0 01-1.058-1.058 1.221 1.221 0 011.322-1.19c.793 0 1.322.4 1.322 1.19a2.133 2.133 0 01-.4 1.19l-.793 1.19h-.926z" fill="#fff"/><path data-name="Path 2342" d="M60.168 45.886c0-.264-.264-.4-.529-.4s-.529.132-.529.4.264.4.529.4.529-.132.529-.4zm0 1.455a.529.529 0 10-.529.529.569.569 0 00.529-.529zm.264-.793a.994.994 0 01.661.926c0 .661-.529 1.058-1.322 1.058s-1.322-.4-1.322-1.058c0-.4.264-.661.661-.926a.893.893 0 01-.529-.793 1.166 1.166 0 011.19-1.058 1.08 1.08 0 011.19 1.058 1.214 1.214 0 01-.529.793z" fill="#fff"/><path data-name="Path 2343" d="M61.755 47.473a1.759 1.759 0 001.058.4c.4 0 .529-.132.529-.4s-.132-.4-.661-.4h-.4v-.529h.4c.4 0 .529-.132.529-.4s-.264-.4-.529-.4a1.879 1.879 0 00-.793.264V44.96a1.677 1.677 0 01.793-.132c.793 0 1.322.4 1.322 1.058a.893.893 0 01-.529.793.977.977 0 01.661.793c0 .661-.529 1.058-1.322 1.058a2.491 2.491 0 01-1.058-.264v-.793z" fill="#fff"/><path data-name="Path 2344" d="M32.53 13.885a3.969 3.969 0 00-1.984-.926c-.661-.132-.793-.132-.926.264 0 .132-.529-.264.132-.793a3.765 3.765 0 011.851-.793 2.093 2.093 0 011.851.529c.132.132.529.529.529.793l.4.264a1.686 1.686 0 01.529.793v.264s-.264.132-.264 0c0 0 .132-.264-.264-.661l-.4-.4a.4.4 0 010 .529c-.4.793-1.322.264-1.455.132zm11.5 4.364c.132.132-.4.926-.529 1.058l-.132.132-.132.132s.264-.132.132.132c-.264.529-.926.661-1.19.793s0 .132 0 .132a1.784 1.784 0 01-1.851 0h-.132c-.132 0-.264.132-.4.132s-.264.132-.4.264v-.132c0-.132.264-.132.4-.132l.529-.264a2.9 2.9 0 01.4-1.058c.132-.132.793-.926 1.058-.926a.13.13 0 01.132.132v.264c.264 0 .661-1.058 1.058-1.058.264 0 0 .264.264.264q.2 0 .4-.4c.132-.132.264-.529.264-.264.264.529-.132 1.058-.132 1.19 0-.4.132-.529.264-.4zm-7.665 2.78a42.58 42.58 0 01-6.612 2.116 77.238 77.238 0 00-12.827 4.364s-.132 0 0-.132a4.019 4.019 0 01.926-.661c.529-.4 1.058-.661 1.587-1.058a31.636 31.636 0 002.773-1.723c.793-.529 2.38-1.984 1.455-3.041-.264.529-.264.132-.529-.132-.529-.4-.264.264-.4.529-.264.529-.529-.264-.926 0-.132.132 0 .661 0 .793-.661 0-.661-1.058-.529-1.455a2.079 2.079 0 011.455-1.322 2.3 2.3 0 011.851.4c.529.4 1.058 1.322.661 1.851a4.426 4.426 0 002.38-2.909c.132-.529 0-1.058-.529-.661-.4.4-.529.264-.661-.264-.793.529-1.587 0-1.058-.793-.4 0-.264-.4 0-.661a2.52 2.52 0 011.322-.661 2.606 2.606 0 011.984.4c1.984 1.322 1.058 3.438-.4 4.761 1.455-.661 3.306-1.984 2.777-3.835-.132-.529-.661-1.058-.793-1.455-.132-.529.529-.132.793 0-.132-.4-.529-1.19 0-1.19.529-.132 1.19.793 1.322 1.587-.132-.661.529-.661.793-.264.132.264.529 1.322-.793 3.174a3.636 3.636 0 001.19-1.455c.4-1.455 0-1.851.529-2.38a.687.687 0 01.529-.264c.661.132.926 1.719.529 1.984a1.017 1.017 0 00.4-.264c.4-.132.529.264.4.661a4.852 4.852 0 01-1.322 2.248 11.348 11.348 0 01-4.5 2.38 12.247 12.247 0 005.422-2.645c1.058-.926 2.248-2.116 2.38-3.57 0-.529-.132-1.455-.793-1.455-.793.132-.264 1.19-.926.793a1.636 1.636 0 01-.4-1.984 1.989 1.989 0 011.455-.529c-.529 0-1.455 0-1.587-.529a.877.877 0 01.264-.926 4.8 4.8 0 01.926-.4s-.529 0-.264-.4a6.447 6.447 0 01.926-.4 2.537 2.537 0 012.645.793c.264.4.793 1.851.926.529 0-.529.132-.793.529-.264.4.793 2.777 3.306-1.19 7.538a11.287 11.287 0 01-4.1 2.777z" fill="#fff"/><path data-name="Path 2345" d="M69.689 13.753c-.132-.264-.132-.529 0-.529l-.4.4a2.137 2.137 0 00-.264.661c0 .132-.264 0-.264 0v-.264c.132-.529.264-.529.529-.793 0 0 .4-.4.4-.264a1.087 1.087 0 01.529-.793 3.659 3.659 0 011.851-.529 4.443 4.443 0 011.851.661c.661.529.132.926.132.793-.132-.264-.264-.264-.926-.264a9.408 9.408 0 00-1.984.926c-.264.264-1.19.793-1.455 0zm-9.786 4.5c.132-.132-.264-.661-.132-1.19.132-.132.264.132.264.264q.2.4.4.4c.132 0-.132-.264.264-.264.529 0 .926 1.058 1.058 1.058s0-.132 0-.264a.13.13 0 01.132-.132c.264 0 .926.793 1.058.926a2.9 2.9 0 01.4 1.058 1.938 1.938 0 00.529.264.653.653 0 00.4.132v.121c-.132 0-.264-.132-.4-.264-.132 0-.264-.132-.4-.132h-.132c-.661.529-1.984.132-1.851 0 0 0 .264-.132 0-.132-.132-.132-.793-.264-1.19-.793-.132-.264.132-.132.132-.132a.13.13 0 00-.132-.132l-.132-.132c-.132-.132-.661-.926-.529-1.058a1.637 1.637 0 00.264.4zm3.57.4c-3.967-4.1-1.587-6.744-1.19-7.538.4-.661.529-.264.529.264.132 1.322.661-.264.926-.529a2.465 2.465 0 012.645-.793 1.428 1.428 0 01.926.4c.264.264-.264.264-.264.4s.793.264.926.4a.818.818 0 01.264.926c-.264.529-1.19.529-1.587.529a1.806 1.806 0 011.455.529 1.6 1.6 0 01-.4 1.984c-.661.4-.132-.661-.926-.793-.661-.132-.793.926-.793 1.455a5.156 5.156 0 002.38 3.57 13.841 13.841 0 005.422 2.645 11.348 11.348 0 01-4.5-2.38 4.852 4.852 0 01-1.322-2.248c-.132-.4 0-.793.4-.661.264 0 .132.132.4.264-.264-.264 0-1.851.529-1.984a.528.528 0 01.529.264c.4.661.132.926.529 2.38.264.793 1.322 1.719 1.19 1.455-1.455-1.984-1.058-3.041-.793-3.306s.793-.4.793.264c.132-.793.661-1.719 1.322-1.587.529.132.132.793 0 1.19.264-.132.926-.529.793 0s-.661.926-.793 1.455c-.529 1.851 1.322 3.174 2.777 3.835-1.455-1.322-2.38-3.438-.4-4.761a2.606 2.606 0 011.984-.4 2.113 2.113 0 011.322.661c.264.264.4.661 0 .661.661.926-.264 1.455-1.058.793-.132.529-.264.529-.661.264-.529-.529-.661.132-.529.661a4.754 4.754 0 002.38 2.909 1.469 1.469 0 01.661-1.851 2.4 2.4 0 011.851-.4 2.079 2.079 0 011.455 1.322c.132.4.132 1.455-.529 1.455 0-.132.264-.661 0-.793-.4-.264-.661.4-.926 0-.132-.264.132-.926-.4-.529-.264.132-.264.529-.529.132-.926 1.058.661 2.513 1.455 3.041a31.636 31.636 0 012.777 1.719c.529.4 1.058.661 1.587 1.058.264.132.661.529.926.661v.132a104.541 104.541 0 00-12.821-4.372 35.12 35.12 0 01-6.612-2.116 16.89 16.89 0 01-4.1-2.645z" fill="#fff"/><path data-name="Path 2346" d="M96.93 45.357h6.612L96.8 51.704l6.744 6.48H85.029a80.613 80.613 0 006.083-5.422 66.54 66.54 0 00-78.549 0 46.964 46.964 0 006.082 5.418H0l6.744-6.48L0 45.357h6.612a57.492 57.492 0 01-3.835-6.877 83.01 83.01 0 0197.988 0 50.364 50.364 0 01-3.835 6.876zm-3.83-4.628l.926-1.719a77.478 77.478 0 00-7.273-3.967l-.793 1.719 2.507 1.318-3.174 5.818c.793.4 1.455.793 2.248 1.19l3.174-5.818 2.38 1.455zm-8.463-3.7l.926-2.116a5.751 5.751 0 00-.926-.793c-.529-.4-1.058-.661-1.455-.926a7.125 7.125 0 00-1.322-.4 2.508 2.508 0 00-2.777 1.719c-.529 1.322 0 2.38 1.19 3.306.926.793 1.587 1.058 1.322 1.719-.132.4-.529.4-1.058.264a7.141 7.141 0 01-2.38-1.984l-.926 2.248.793.793a5.488 5.488 0 001.719.926 3.521 3.521 0 001.587.4 2.869 2.869 0 002.77-1.721c.529-1.455 0-2.38-1.19-3.438-.793-.793-1.455-1.058-1.322-1.587.132-.4.529-.4.926-.132a4.744 4.744 0 012.116 1.719zm-11.5-.132l.4-1.455 2.645.793.529-1.984-2.645-.793.4-1.058 3.174.926.529-1.984c-1.851-.661-3.7-1.19-5.554-1.719l-2.529 8.457c1.984.529 3.835 1.058 5.686 1.719l.661-1.984-3.306-.926zM68.9 29.224a9.6 9.6 0 00-1.19-.661c-1.455-.264-2.777-.529-4.232-.793l-1.719 8.6c.793.132 1.719.264 2.513.4l.661-3.174.4.132 1.322 3.57c.926.264 1.984.4 2.909.661l-1.587-4.1a2.525 2.525 0 002.116-2.116 2.9 2.9 0 00-1.19-2.513zm-10.583-1.983l-1.587-.4a6.438 6.438 0 00-1.587.132A4.659 4.659 0 0051.7 31.08a4.566 4.566 0 003.041 4.628 5.624 5.624 0 001.455.264 6.438 6.438 0 001.587-.132 4.648 4.648 0 003.57-4.232 4.836 4.836 0 00-3.041-4.364zm-11.108 1.983l3.438-.132-.132-1.984c-1.984 0-3.967.132-5.951.264l.529 8.728a16 16 0 012.513-.132l-.132-3.306 2.909-.132-.264-2.116-2.909.132v-1.322zm-7.67-1.322c-.793.132-1.719.264-2.513.4l-.132 3.041c0 .793-.132 1.587-.132 2.513-.4-.661-.793-1.455-1.19-2.116l-1.587-2.78c-.661.132-1.19.264-1.851.4L32 32.53c0 .793-.132 1.587-.132 2.38-.4-.661-.793-1.455-1.19-2.116l-1.455-2.777c-.793.264-1.719.529-2.513.793l4.5 7.8a19.332 19.332 0 012.645-.661l.132-2.116c0-.793.132-1.587.132-2.513.4.661.793 1.455 1.19 2.116l1.058 1.851c.926-.132 1.851-.4 2.645-.529l.529-8.86zM28.7 39.539l-.8-1.984-3.172 1.325-.528-1.325 2.645-1.058-.793-1.851-2.645 1.058-.4-1.058 3.041-1.19-.793-1.851c-1.851.661-3.7 1.322-5.422 2.116l3.174 8.2a42.987 42.987 0 015.686-2.38zm-6.876 2.777l-4.1-7.67c-.793.4-1.455.661-2.248 1.058l1.322 2.513a14.453 14.453 0 011.058 1.984c-.661-.4-1.322-.661-2.116-1.058l-3.57-1.719c-.661.4-1.455.793-2.116 1.19l4.1 7.67c.661-.4 1.455-.793 2.116-1.19l-1.322-2.38a14.453 14.453 0 01-1.058-1.984c.661.4 1.322.661 2.116 1.058l3.438 1.719a19.783 19.783 0 012.38-1.19zM56.6 29.224a2.234 2.234 0 00-2.38 2.116 2.266 2.266 0 002.116 2.513 2.234 2.234 0 002.38-2.116 2.266 2.266 0 00-2.116-2.513zm10.843 2.248a.879.879 0 01-.529.661 1.414 1.414 0 01-1.058 0l-.661-.132.4-1.719.4.132a4.477 4.477 0 011.058.4c.264 0 .4.264.4.661z" fill="#fff"/></svg>