<svg viewBox="0 0 89.7 36.1" xmlns="http://www.w3.org/2000/svg"><path d="M86.3 4.3l-1.9 5.8c-2-.9-4.2-1.4-6.4-1.3-3.1 0-5.6.5-5.6 2.8 0 4.1 11.3 2.6 11.3 11.4 0 8-7.5 10.1-14.3 10.1-3.1-.1-6.1-.6-9-1.5l1.8-5.9c2.2 1.1 4.7 1.7 7.2 1.7 2.4 0 6.2-.5 6.2-3.5 0-4.7-11.3-2.9-11.3-11.1 0-7.5 6.6-9.8 13-9.8 3.7 0 7.1.4 9 1.3m-22.4-.8l-6.1 29.1H50l2.6-12.5h-9.3l-2.6 12.5h-7.8L39 3.5h7.8l-2.3 11.1h9.3L56 3.5zm-27.8 0l-6.2 29.1h-9.7L14 12.4 9.9 32.6H2.5L8.8 3.5h9.8l6 20.2h.1l4.1-20.2zM89.7 0H0v36.1h89.7z" fill="#fff"/></svg>