<svg version="1.1" id="Layer_1" xmlns="http://www.w3.org/2000/svg" x="0" y="0" viewBox="0 0 585 166" xml:space="preserve"><style>.st0{fill:#fff}</style><path class="st0" d="M82.42 1.7C37.89 1.7 1.76 37.83 1.76 82.41c0 44.58 36.13 80.71 80.66 80.71 44.53 0 80.66-36.13 80.66-80.71-.01-44.58-36.14-80.71-80.66-80.71zm28.51 114.44c-16.45 0-30.18-12.16-32.62-28.07h-6.45c0 6.69-2.44 13.52-5.91 18.26-4.93 6.69-12.65 9.81-20.95 9.81-8.64 0-15.87-3.52-20.65-10.35-6.15-8.74-6.4-18.8-6.3-27.97h43.6V59.75h-6.5V49.74h23.19v10.01h-6.4v18.07h6.35c2.44-15.92 16.16-28.08 32.62-28.08 8.01 0 15.33 2.83 21.04 7.57V49.7h10.99v23.58h-11.33l-.1-.2C127.87 65.37 120.01 60 110.93 60c-10.79 0-19.87 7.62-22.21 17.82h55.12c.1 1.71.15 3.37.15 5.12-.01 18.31-14.8 33.2-33.06 33.2z"/><path class="st0" d="M45.16 105.89c6.98 0 16.51-4.69 16.51-17.82H28.9c0 7.32 4.05 17.82 16.26 17.82zm65.77 0c10.84 0 19.92-7.62 22.26-17.82H88.71c2.35 10.2 11.43 17.82 22.22 17.82zm74.99 1.76l7.23-10.45c6.98 4.69 15.09 6.98 23.48 6.98 12.79 0 15.18-2.44 15.18-7.91 0-5.42-5.47-6.49-15.53-7.91-17.48-2.44-26.56-5.62-26.56-19.87 0-14.55 8.79-19.77 27.24-19.77 13.38 0 21.49 3.08 26.51 6.45l-7.76 11.23c-4.15-2.74-11.81-5.03-18.89-5.03-10.25 0-12.74 2-12.74 6.79 0 5.32 5.42 6.3 15.82 7.76 15.72 2.29 26.22 4.88 26.22 19.63 0 13.23-7.23 20.7-29.05 20.7-12.99-.01-23.73-3.13-31.15-8.6zm65.67-41.6l10.74-.83 1.17 4.44c2.64-3.17 7.66-5.57 18.26-5.57 17.13 0 21.38 11.67 21.38 26.07 0 14.36-4.49 25.88-22.17 25.88-9.04 0-13.23-1.76-15.53-4.69v18.46h-13.86V66.05zm37.49 24.66c0-8.06-1.76-13.96-10.84-13.96-9.57 0-12.79 4.29-12.79 13.96 0 9.52 2.73 13.57 12.79 13.57 8.94 0 10.84-5.66 10.84-13.57zm18.6-.54c0-13.96 4.59-26.07 25.93-26.07 22.02 0 22.7 14.65 22.26 31.35h-34.76c.78 6.01 3.71 9.57 12.6 9.57 7.71 0 12.01-1.85 15.72-4.59l6.98 8.98c-6.45 4.88-12.79 6.83-22.7 6.83-21.63 0-26.03-11.86-26.03-26.07zm13.43-4.59h22.17c-.39-5.76-1.51-9.91-10.11-9.91-8.54 0-11.37 3.81-12.06 9.91zm39.5 4.59c0-13.96 4.59-26.07 25.98-26.07 21.97 0 22.71 14.65 22.27 31.35h-34.82c.78 6.01 3.71 9.57 12.65 9.57 7.66 0 12.01-1.85 15.72-4.59l6.98 8.98c-6.5 4.88-12.84 6.83-22.71 6.83-21.67 0-26.07-11.86-26.07-26.07zm13.43-4.59h22.17c-.34-5.76-1.51-9.91-10.06-9.91-8.6 0-11.43 3.81-12.11 9.91zm39.41 4.39c0-14.31 4.69-25.88 22.22-25.88 9.08 0 13.43 2 15.53 4.69V46.67h13.86v68.01l-10.59.98-1.41-4.98c-2.98 3.52-8.21 5.57-17.82 5.57-17.3-.01-21.79-11.87-21.79-26.28zm37.74 0c0-9.47-2.64-13.43-12.7-13.43-9.13 0-10.98 5.47-10.98 13.43 0 8.06 1.86 14.31 10.98 14.31 9.53 0 12.7-4.69 12.7-14.31zm18.5-24.75h9.42v-2.39c0-11.38 4.15-17.72 18.89-17.72 3.27 0 5.08.1 6.64.14v11.33h-4.79c-5.61 0-6.98 2.2-6.98 6.2v2.44h11.77v11.87h-11.77v38.18H479.1V77.09h-9.42V65.22zm41.16-17.23h14.02v12.64h-14.02V47.99zm.1 17.23h13.86v50.04h-13.86V65.22zm18.55 0h8.79l2.39-12.16 10.79-2.25v14.4h11.82v11.87h-11.82v20.55c0 3.9.54 6 6.45 6h5.37v11.62c-2.05.2-5.76.2-8.2.2-13.52 0-17.38-4.59-17.38-15.77v-22.6h-8.21V65.22zm46.48-5.47c1.27 0 1.66-.29 1.66-1.37 0-1.12-.39-1.42-1.66-1.42h-2.44v2.78h2.44zm-.29 1.71h-2.15v3.27h-1.95v-9.47h4.49c3.12 0 3.61 1.22 3.61 3.08 0 1.32-.29 2.49-1.95 2.93l1.95 3.47h-2.15l-1.85-3.28zm6.15-1.51c0-3.81-1.76-6.79-6.45-6.79s-6.54 2.98-6.54 6.79 1.86 6.84 6.54 6.84 6.45-3.03 6.45-6.84m-14.16 0c0-4.49 2.54-8.01 7.71-8.01 5.18 0 7.81 3.51 7.81 8.01 0 4.54-2.63 8.01-7.81 8.01-5.17 0-7.71-3.47-7.71-8.01"/></svg>