<svg version="1.1" id="Layer_1" xmlns="http://www.w3.org/2000/svg" x="0" y="0" viewBox="0 0 127.8 62.2" xml:space="preserve"><style>#Group_529 path{fill:#fff}</style><g id="Neue_Goldkontur"><g id="Group_529"><path id="Path_1313" d="M72 5.7l-.6.3v9.4c.2-.2.5-.4.7-.5V5.7z"/><path id="Path_1314" d="M72.5 43.8c0 1.6.4 2.6 1.1 3-.4-.7-.6-1.6-.6-2.4 0-1.1.1-3.5 1.5-3.5.2 0 .5.1.7.2-.2-.4-.6-.7-1.1-.7-1.5-.1-1.6 2.3-1.6 3.4z"/><path id="Path_1315" d="M72 19c.6-.9 1.8-1.2 2.7-.7-1.4-1.7-2.9-.2-3.4.4V29l.7.6V19z"/><path id="Path_1316" d="M82.1 30.4l-.7-.6v1.7H75v.6h7.1v-1.7z"/><path id="Path_1317" d="M72 53.5c.8.1 2.5.2 3.9.2l.5.1c.1 0 .3 0 .4.1 0-.3-.2-.6-.9-.6h-.5c-1.4-.1-3-.1-3.8-.2-.4.2-.7.6-.9 1.1-.2.5-.2 1 .1 1.4.1.2.3.3.5.4-.2-.4-.2-.8 0-1.2 0-.6.3-1 .7-1.3z"/><path id="Path_1318" d="M54.3 25c0-3.5.6-5.3 1.2-6 .5.5 1.2.7 1.9.7.3 0 .5 0 .8-.1v-.9c-.4.2-.9.4-1.3.4-.7 0-1.3-.2-1.9-.7-.5.8-1.3 2.5-1.3 6v4.5c.2.1.5.5.7.6V25z"/><path id="Path_1319" d="M64.2 14.7c-.1-.3-.1-.7-.1-1V8.5l-.7.3v4.4c0 .9.2 1.3.8 1.5z"/><path id="Path_1320" d="M57 38.7c.2.4.4.9.5 1.4.1-.2.2-.3.3-.5-.1-.4-.3-.7-.5-1l-.3.1z"/><path id="Path_1321" d="M53.5 15.6c-.2-.5-.4-1-.8-1.5l-.3.1c.3.6.5 1.3.7 1.9.1-.1.3-.3.4-.5z"/><path id="Path_1322" d="M80.6 29c.2.1.6.5.7.6v-8.8c.1-1.9-.6-3.8-2-5.2.9 1.3 1.4 2.9 1.3 4.5V29z"/><path id="Path_1323" d="M62.9 32.4c.7 0 1.5-.1 2.2-.3h7.8v-1.8l-.7-.5v1.7h-6.7v-1.7l-.6.1v1.5c-.8.3-1.7.5-2.6.5-1 0-1.9-.2-2.7-.8.8.9 2.1 1.4 3.3 1.3z"/><path id="Path_1324" d="M55.1 30.3l-.7-.6v1.7H48v.6h7.1v-1.7z"/><path id="Path_1325" d="M65 38.3c-.5 0-1-.1-1.4-.4.3.4.7.8 1.2.9l2.6-.8c.3-.4.5-.9.5-1.5 0-.8-.4-1.5-1-2 .3.4.4.9.4 1.4 0 1.3-1 2.4-2.3 2.4z"/><path id="Path_1326" d="M102.6 15.6c-.2-.5-.4-1-.8-1.5l-.3.1c.3.6.5 1.3.7 1.9.1-.1.3-.3.4-.5z"/><path id="Path_1327" d="M107.6 45.7V45c-1.2.4-3.9 2.2-2.1 4.9-.6-1.7.3-3.5 2-4.1l.1-.1z"/><path id="Path_1328" d="M103.2 43.3c-.4 0-.8-.1-1.1-.3.4.6 1.1.9 1.8.8.6 0 1.2-.3 1.6-.8.4-.6.5-1.3.4-1.9.3-.1.5-.1.8-.1.3 0 .5 0 .7.2-.3-.5-.8-.8-1.3-.8-.3 0-.5 0-.8.1.2.7 0 1.4-.4 2-.5.5-1.1.8-1.7.8z"/><path id="Path_1329" d="M86.1 50.7l.7.6V38.6l-.7.2v11.9z"/><path id="Path_1330" d="M111.4 6.7l-.3.1c1 2.6-.1 5.5-2.5 6.7l.4.5c4.5-2.5 2.4-7.3 2.4-7.3z"/><path id="Path_1331" d="M120.9 18.3l2.3-.2v-4.9s-.6-.2-.7-.3v4.7l-1.8.2c.1-.1.2.5.2.5z"/><path id="Path_1332" d="M103.4 25.1c0-3.5.6-5.3 1.2-6.1.5.5 1.2.7 1.9.7 1.4 0 2.6-1.2 2.6-2.6V17c0-.8-.4-1.5-1-2 .3.4.5.9.5 1.4.1 1.4-1 2.7-2.5 2.7h-.1c-.7 0-1.3-.2-1.9-.7-.6.8-1.3 2.5-1.3 6V29c.2.1.5.5.7.6l-.1-4.5z"/><path id="Path_1333" d="M91.9 39.6l.4-.3c-.1-.2-.2-.5-.4-.7l-.3.1.3.9z"/><path id="Path_1334" d="M83.6 38.7l2.7-.8c.3-.4.5-.9.5-1.5 0-.8-.4-1.5-1-2 .3.4.4.9.4 1.4 0 1.3-1.1 2.4-2.4 2.4-.5 0-1-.1-1.4-.4.3.4.7.8 1.2.9z"/><path id="Path_1335" d="M89.5 32.7c3.1-.1 6-1.8 7.5-4.6l-.4-.7c-1.4 2.9-4.4 4.8-7.6 4.7-1.8 0-3.5-.6-4.9-1.8 1.3 1.6 3.3 2.4 5.4 2.4z"/><path id="Path_1336" d="M90.4 17.3c-.3-.5-.8-.8-1.3-.8-1.3 0-2.3 2.1-2.4 5.1l.5-.1c.2-2.7 1-5.1 3.2-4.2z"/><path id="Path_1337" d="M104.2 30.3l-.7-.5v1.7h-6.4v.6h7.1v-1.8z"/><path id="Path_1338" d="M86.9 24.2c.1 1.3.8 2.6 1.8 3.5-.6-.9-1.1-1.9-1.2-3 1.7-.5 9.6-2.8 9.6-2.8s-.7-4.5-2.7-6c1.6 1.9 2.2 5.6 2.2 5.6s-8 2.2-9.7 2.7z"/><path id="Path_1339" d="M63.4 28.1c0 .7.1 1.1.4 1.3.1.1.3.2.5.2-.1-.3-.2-.6-.2-.9V18.1h2v-2.7h-.4v2.1h-2.3v10.6z"/><path id="Path_1340" d="M104 53.1c-.9 0-1.8-.3-2.5-.8.7.9 1.8 1.4 3 1.4 1.4 0 2.8-.5 3.9-1.3-.2-.2-.4-.4-.5-.7-1.1.9-2.5 1.4-3.9 1.4z"/><path id="Path_1341" d="M111.1 40c.7.9 1.1 2 1.1 3.2v7.1c0 .9.7.8.7.8v-7.3c-.1-1.5-.7-2.9-1.8-3.8z"/><path id="Path_1342" d="M92.3 42.3v8.4l.7.6v-8.9c.5-.6 1.4-.8 2.1-.4-.6-.7-1.7-.8-2.4-.2-.2.2-.3.4-.4.5z"/><path id="Path_1343" d="M118.8 52.9h-5.3v-.5h-.2v-1l-.5-.3v1.7c-.7.3-1.4.5-2.2.5-.7 0-1.3-.2-1.9-.5.6.7 1.5 1.2 2.5 1.1.7 0 1.4-.1 2-.3l.2-.1v.1h6.1V52l-.7-.6v1.5z"/><path id="Path_1344" d="M122.3 21.6c3.8 5.7-.7 9.5-4.2 10.2v18.9l.7.6v-19c3.4-.7 8.3-5.3 3.5-10.7z"/><path id="Path_1345" d="M117.2 14.1c.6 0 1.3.2 1.8.6-.6-.8-1.5-1.2-2.4-1.2-1 0-2.2.3-2.2 1.8 0 .7.4 1.3 1 1.7-.3-.3-.4-.7-.4-1.1.1-1.5 1.3-1.8 2.2-1.8z"/><path id="Path_1346" d="M111.2 24.2c.4 1.6 1.2 3 2.4 4.2-.9-1.1-1.6-2.4-1.9-3.8l-.1-.3h-.3l-.1-.1z"/><path id="Path_1347" d="M43.2 33.5c.7 0 1.4.3 2 .7-.6-.8-1.5-1.3-2.5-1.3-2.7 0-4.4 3.5-4.4 9 0 4.6 1.2 7.2 2.5 8.3-1.1-1.3-1.9-3.8-1.9-7.7-.1-5.5 1.7-9 4.3-9z"/><path id="Path_1348" d="M115.1 23.6c1.2.6 2.3 1.2 3.4 2-.5-.7-1.7-1.4-4-2.5h-.1c-1.1-.5-2.1-1.2-3-2 1.2 1.1 2.4 1.9 3.7 2.5z"/><path id="Path_1349" d="M113.6 31.7c-1.4-.3-2.7-.9-3.8-1.8v.4c.9.7 1.9 1.3 3 1.6l.8-.2z"/><path id="Path_1350" d="M6.1 10.2c-1.3 0-2.3 1.3-2.7 1.8l-.2.3-1.3-.5v.4l1.9.8.2-.3c.4-.6 1.3-1.8 2.7-1.8.3 0 .6.1.9.3-.3-.6-.9-.9-1.5-1z"/><path id="Path_1351" d="M16.4 18.2c-.6-3.9-1.9-8.8-4.8-11.4 3 3.3 4 9 4.5 12.8l.3-1.4z"/><path id="Path_1352" d="M17.2 31.5h-4.5l.1.6h5l3.2-15-.3-1.5-3.5 15.9z"/><path id="Path_1353" d="M37.8 24.2c.1 1.3.8 2.6 1.8 3.5-.6-.9-1.1-1.9-1.2-3 1.7-.5 9.6-2.8 9.6-2.8s-.7-4.5-2.7-6c1.6 1.9 2.2 5.6 2.2 5.6s-8 2.2-9.7 2.7z"/><path id="Path_1354" d="M47.4 27.4c-.6 1.3-1.6 2.5-2.8 3.3.4.1.5.1.9.2 1-.8 1.8-1.7 2.4-2.8l-.5-.7z"/><path id="Path_1355" d="M28 20L24.6 5.3h-.4l3.5 15.8.3-1.1z"/><path id="Path_1356" d="M41.3 17.3c-.3-.5-.8-.8-1.3-.8-1.3 0-2.3 2.1-2.4 5.1l.5-.1c.2-2.7 1-5.1 3.2-4.2z"/><path id="Path_1357" d="M58.7 52.9h-5.3v.6h6V52l-.7-.6v1.5z"/><path id="Path_1358" d="M37.8 31.8c-1.1-.3-2-.8-2.9-1.5.7.8 1.5 1.4 2.5 1.8l.4-.3z"/><path id="Path_1359" d="M36.4 7.8V5.3h-.7v2c-.5.1-1.6.1-2.3 3.5l-4.2 20.7h-4.4l.1.6h4.9L34 11.4c.8-3.5 1.4-3.5 2.4-3.6z"/><path id="Path_1360" d="M100.6 48v-4.5c0-1.5-.7-2.8-1.8-3.7.7.9 1.1 2 1.1 3.2v7.8l.7.6V53h-5.4v.6h6v-2c-.5-.7-.8-1.5-.8-2.4 0-.5.1-.8.2-1.2z"/><path id="Path_1361" d="M52.5 39.8l.2-.1c-.4-2.4-1.5-4.6-3.2-6.3.2.2 2.9 2.9 2.9 8.6 0 6.8-3.9 11.5-9.6 11.5-2.2 0-4.4-.8-6-2.2 1.7 1.9 4.1 2.9 6.6 2.7 5.6-.1 9.6-4.8 9.6-11.4 0-.6 0-1.2-.1-1.8h-.4v-1z"/><path id="Path_1362" d="M62.5 40.9c0 .1-.1.3-.2.4-.3.8-1.1 1.3-2 1.3-.5 0-1-.1-1.5-.5-.5.7-1 2.1-1 4.9v3.7l.7.6v-3.6c0-2.8.3-4.4.8-5.1.4.3.9.5 1.5.5.7 0 1.4-.3 1.8-.9.1-.2.2-.4.3-.5 0-.3-.1-.6-.4-.8z"/><path id="Path_1363" d="M75.3 49.7c2.9-.3 5.2-2.5 5.4-5.4 0-1.1-.2-2.2-.8-3.2.2-.1.5-.2.7-.3V40l-.1.1c-.3.3-.7.5-1.1.6.6.9.9 1.9.9 3-.2 3.1-2.7 5.5-5.8 5.5-.8 0-1.6-.1-2.4-.3-.1.1-.1.2-.1.3 0 .1 0 .1.1.2h.2l3 .3z"/><path id="Path_1364" d="M68.7 52.7v-1c-.5-.2-.8-.8-.8-1.3 0-.1 0-.2.1-.3V38.6l-.7.2v11.8l.7.7v1.5h-5.4v.6H68l.7-.7z"/><path id="Path_1365" d="M87.3 51.9l-.6-.5v1.5H81c-.4 3.2-4.5 5.9-9 5.9-1.3.1-2.7-.3-3.8-1 .8 1.1 2.2 1.5 4.2 1.5 4.5 0 8.6-2.7 9-5.8h12.3V52l-.7-.7v1.5h-5.5v-.5h-.1l-.1-.4z"/></g></g><g id="WO-Logo"><g id="Group_530"><path id="Path_1366" d="M60.2 38.4c-1.4 0-2.5 1.6-2.9 2.7h-.1c-.1-.9-.4-1.9-.9-2.7l-3.9 1.3v1c1 0 1.3.5 1.3 3v7l-.7.6v1h5v-1l-.7-.6v-3.9c0-4.2 1.3-5.5 1.3-5.5.4.4 1 .7 1.6.7 1 0 1.8-.9 1.8-1.9.1-.9-.8-1.7-1.8-1.7zm48.3-27.8c-.1.7-.3 1.4-.7 2l.4.4c.9-.5 1.7-1.2 2.2-2.1.4-.7.6-1.5.6-2.3 0-.8-.1-1.5-.4-2.2l-3 1v1.2c.6.5 1 1.3.9 2zM35.3 6.7V5.1h-6.2v1.7c.7.1 1.6.7 1.3 2.5L27.7 23 23.6 5.1h-4l-3.7 16.8c-.4-3.5-1.2-12.6-5.9-16-1-.8-2.2-1.2-3.4-1.2-1.9 0-3.7.7-5 2.1v4.5l1.3.5c.4-.5 1.5-2.1 3.1-2.1 3.4 0 5.4 10.5 6.3 21.2h4.3l3.8-17.5L24.5 31h4.2l4.1-20.4c.7-3 1.6-3.7 2.5-3.9zm11 24.8c-.9-.4-2-.7-3-.7 1.6-.8 3-2.2 3.8-3.8l-1.4-1.1c-.3.4-1.9 2.8-4.3 2.8-2.2 0-3.7-1.8-4.1-4.9l9.6-2.8c-.7-4.6-3-6.9-6.7-6.9-4.5 0-7.6 3.7-7.6 9.1 0 4.6 2.5 7.9 6.4 8.2-2.8 1.3-5.6 4.4-5.6 10.3-.1 2.8.8 5.6 2.4 7.8 1.6 2.1 4.2 3.3 6.8 3.2 5.5 0 9.2-4.4 9.2-11 0-4.7-2-8.6-5.5-10.2zM39.9 16c1.3 0 2.2 1.2 2.2 3 0 1.2-.4 1.7-1.4 2l-3.6 1c0-3.5 1.1-6 2.8-6zm2.7 35.3c-2.2 0-4.8-2.5-4.8-9.4 0-5.7 1.9-9.4 4.8-9.4s4.9 3.7 4.9 9.4c0 6.4-2.5 9.4-4.9 9.4zm46.2-19.7c3.1.1 6-1.7 7.3-4.5L94.8 26c-.3.4-1.9 2.8-4.3 2.8-2.2 0-3.7-1.8-4.1-4.8l9.6-2.8c-.7-4.6-3-6.9-6.7-6.9-4.5 0-7.7 3.7-7.7 9.1 0 4.8 2.9 8.2 7.2 8.2zM89 16c1.3 0 2.2 1.2 2.2 3 0 1.2-.4 1.7-1.4 2l-3.6 1c0-3.7 1.1-6 2.8-6zm-7.4 19.7c0 1.1.9 2 2 2s2-.9 2-2-.9-2-2-2-2 .9-2 2zm16.1-15.1V29l-.9.8V31h6v-1.2l-.8-.8v-4.7c0-5.2 1.6-6.6 1.6-6.6.5.5 1.2.9 1.9.9 1.2 0 2.3-1 2.3-2.2 0-1.2-1-2.3-2.2-2.3h-.2c-1.7 0-3 1.9-3.5 3.3h-.1c-.1-1.1-.5-2.2-1-3.2l-4.6 1.6V17c1.1 0 1.5.6 1.5 3.6zm1.5 22.2c.2-2.2-1.5-4.1-3.6-4.3h-.2c-1.5 0-2.9.7-3.8 1.9-.1-.7-.3-1.3-.6-1.9l-4 1.3v1c.8 0 1.1.5 1.1 2v8l-.7.6v1h5v-1l-.7-.6v-8.7c.5-.7 1.2-1.1 2-1.2 1.3 0 2 1 2 3v6.8l-.7.7v1h5v-1l-.7-.6-.1-8zm12.3 7.3V43c0-2.8-2-4.6-5.2-4.6-1.2 0-2.3.2-3.4.6-.9.3-1.5 1.1-1.5 2.1-.1.9.5 1.6 1.4 1.7h.2c.5 0 1-.2 1.3-.6.4-.6.4-1.3.2-2 .4-.2.8-.3 1.2-.3 2.2 0 2.1 2.5 2.1 3.1-1.2.4-7.5 1.5-7.5 6.1-.1 1.8 1.3 3.4 3.2 3.5h.3c1.5 0 3-.6 4.2-1.7.3 1.1 1.3 1.8 2.5 1.7.6 0 1.1-.1 1.6-.2v-1c-.1 0-.3 0-.4-.1-.1-.4-.2-.8-.2-1.2zm-3.6-.6c-.5.5-1.2.9-1.9.9-1 0-1.8-.8-1.8-1.9v-.2c.1-3 3.1-3.7 3.7-3.9v5.1zM64.3 29.8c-.3.1-.7 0-1-.2-.4-.5-.6-1.1-.5-1.7V17h2.4v-1.9h-.4c-1.5 0-1.9-.4-1.9-2.1V8.3l-4.4 1.5v5.3c-.5-.6-1.2-1-2-1-1.7 0-3 1.9-3.5 3.3h-.1c-.1-1.1-.5-2.2-1-3.2L47 15.7V17c1.2 0 1.6.6 1.6 3.7V29l-.9.8V31h6v-1.2l-.8-.8v-4.7c0-4.1 1-6 1.6-6.6.5.5 1.2.8 1.9.9.7 0 1.4-.4 1.8-1v9.2c0 2.1.7 4.6 3.9 4.6.7 0 1.4-.1 2.1-.4l.1-1.2zm59-4.4c0-2.5-1.2-4.2-4.8-6.2-3-1.6-4.4-2.5-4.4-4s.9-2.2 2.6-2.2c1.9 0 3.2 1.3 4 4.2l1.3-.2v-4.4c-1.7-1-3.5-1.5-5.5-1.5-4 0-6.7 2.2-6.7 5.4 0 2.3 1.2 4.2 4.8 6s4.7 2.4 4.7 4.2c0 1.6-1.4 2.9-3 2.9h-.2c-3.1 0-4.8-3.2-5.4-5.8l-1.5.1.3 5.3c1.6 1.3 3.6 2.1 5.7 2.2l-2.5.9v1c1.1 0 1.2 1.9 1.2 3.1v14.2l-.6.6v1h4.9v-1l-.7-.6V31.4c3.4-.6 5.8-3 5.8-6zm-37.8 13l-4.4 1.3v1c.5 0 .8.8.8 2.2v7.7l-.7.6v1h5v-1l-.7-.6V38.4zm-23.1 13v1h5v-1l-.6-.7V38.5l-4.4 1.3v1c.5 0 .8.8.8 2.2v7.7l-.8.7zm.5-15.7c0 1.1.9 2 2 2s2-.9 2-2-.9-2-2-2-2 .9-2 2zm17-15.8c0-3.6-1.7-5.8-4.7-5.8-1.7 0-3.4.8-4.5 2.2V5.6l-5.9 2v1.2c.9 0 1.5.6 1.5 3V29l-.9.8V31h6.2v-1.2l-.9-.8V18.5c.6-.8 1.4-1.3 2.4-1.4 1.6 0 2.3 1.2 2.3 3.6V29l-.9.8V31h6.1v-1.2l-.7-.8v-9.1zm-3.8 29.8l-3.9-.2c-.2 0-.5-.1-.6-.2-.4-.6.3-.9.3-.9.8.2 1.7.3 2.5.3 2.9 0 5.3-2.3 5.4-5.1 0-1.2-.4-2.4-1.2-3.3.6 0 1.1-.3 1.6-.6l-.5-.9c-1.4.3-2.9.3-4.3-.1-.6-.1-1.1-.2-1.7-.2-2.9-.1-5.3 2.1-5.5 5v.1c-.1 1.9 1 3.6 2.7 4.4-1.6.5-2.9 1.4-2.9 2.4 0 1.3 1.5 1.6 1.7 1.6-.9.4-1.6 1.1-2 2-.4.8-.4 1.8 0 2.6.7 1.1 2.2 1.7 4.2 1.7 4.4 0 8.7-2.8 8.7-6-.1-2.2-2.6-2.4-4.5-2.6zm-2.2-9.9c1.3 0 2.1 1.6 2.1 3.9 0 2.2-.8 3.6-2 3.6s-2-1.3-2-3.6c0-1.4.2-3.8 1.9-3.9zm-1.2 16.8c-1.7.1-3.2-1-2.6-2.7.2-.6.6-1.1 1.2-1.4 0 0 1.6.1 4 .2h.4c1.1.1 1.3.8 1.3 1.2.1 1-1.5 2.6-4.3 2.7z"/></g></g><path d="M81.6 35.7c0 1.1.9 2 2 2s2-.9 2-2-.9-2-2-2-2 .9-2 2zm26.9-25.1c-.1.7-.3 1.4-.7 2l.4.4c.9-.5 1.7-1.2 2.2-2.1.4-.7.6-1.5.6-2.2 0-.8-.1-1.5-.4-2.2l-3 1v1.2c.6.4 1 1.1.9 1.9zm-10.8 10V29l-.9.8V31h6.1v-1.2l-.9-.8v-4.7c0-5.2 1.6-6.6 1.6-6.6.5.5 1.2.8 1.9.9 1.2 0 2.3-1 2.3-2.2 0-1.2-1-2.3-2.2-2.3h-.2c-1.7 0-3 1.9-3.5 3.3h-.1c-.1-1.1-.5-2.2-1-3.2l-4.7 1.6V17c1.2 0 1.6.5 1.6 3.6zM46.2 31.5c-1-.4-2-.7-3-.7 1.6-.8 3-2.1 3.8-3.8l-1.3-1.1c-.3.4-1.9 2.8-4.3 2.8-2.2 0-3.7-1.8-4.1-4.9l9.6-2.8c-.7-4.6-3-6.9-6.7-6.9-4.5 0-7.6 3.7-7.6 9.1 0 4.6 2.5 7.9 6.4 8.2-2.8 1.3-5.6 4.4-5.6 10.3-.1 2.8.8 5.6 2.4 7.8 1.6 2.1 4.2 3.3 6.8 3.2 5.5 0 9.2-4.4 9.2-11 0-4.7-2-8.6-5.6-10.2zm-6.3-15.6c1.3 0 2.2 1.2 2.2 3 0 1.2-.4 1.7-1.4 2l-3.6 1c-.1-3.4 1.1-6 2.8-6zm2.6 35.3c-2.2 0-4.8-2.5-4.8-9.4 0-5.7 1.9-9.4 4.8-9.4s4.9 3.7 4.9 9.4c0 6.5-2.4 9.4-4.9 9.4zM35.2 6.7V5.1H29v1.7c.7.1 1.6.7 1.3 2.5L27.7 23l-4-17.9h-4l-3.8 16.8c-.4-3.5-1.2-12.6-5.9-16-1-.8-2.2-1.2-3.4-1.2-1.9 0-3.7.7-5 2.1v4.5l1.3.5c.4-.5 1.5-2.1 3.1-2.1 3.4 0 5.4 10.5 6.3 21.2h4.4l3.8-17.5 4 17.6h4.2l4.1-20.4c.7-3 1.6-3.7 2.4-3.9zm53.6 24.8c3.1.1 6-1.7 7.3-4.5l-1.3-1.1c-.3.4-1.9 2.8-4.3 2.8-2.2 0-3.7-1.8-4.1-4.9L96 21c-.7-4.6-3-6.9-6.7-6.9-4.5 0-7.7 3.7-7.7 9.1 0 5.1 2.9 8.3 7.2 8.3zm.2-15.6c1.3 0 2.2 1.2 2.2 3 0 1.2-.4 1.7-1.4 2l-3.6 1c0-3.6 1.1-6 2.8-6zM62.4 51.4v1h5v-1l-.6-.7V38.5l-4.4 1.3v1c.5 0 .8.8.8 2.2v7.7l-.8.7zm36.8-8.6c.2-2.2-1.5-4.1-3.7-4.3h-.2c-1.5 0-2.9.7-3.8 1.9-.1-.7-.3-1.3-.6-1.9l-4 1.3v1c.8 0 1.1.5 1.1 2v8l-.7.6v1h5v-1l-.7-.6v-8.7c.5-.7 1.2-1.1 2-1.2 1.3 0 2 1 2 3v6.8l-.6.7v1h5v-1l-.7-.6-.1-8zm12.3 7.3V43c0-2.8-2-4.6-5.2-4.6-1.2 0-2.3.2-3.4.6-.9.3-1.5 1.1-1.5 2.1-.1.9.5 1.6 1.4 1.7h.2c.5 0 1-.2 1.3-.6.4-.6.4-1.3.2-2 .4-.2.8-.3 1.2-.3 2.2 0 2.1 2.5 2.1 3.1-1.2.4-7.5 1.5-7.5 6.1-.1 1.9 1.4 3.4 3.2 3.5h.3c1.5 0 3-.6 4.2-1.7.3 1.1 1.4 1.8 2.5 1.7.6 0 1.1-.1 1.6-.2v-1c-.1 0-.3 0-.4-.1-.1-.4-.2-.8-.2-1.2zm-3.6-.6c-.5.5-1.2.9-1.9.9-1 0-1.8-.8-1.8-1.9v-.2c.1-3 3.1-3.7 3.7-3.9v5.1zm15.3-24.1c0-2.5-1.2-4.2-4.8-6.2-3-1.6-4.4-2.5-4.4-4s.9-2.2 2.6-2.2c1.9 0 3.2 1.3 4 4.2l1.4-.2v-4.4c-1.7-1-3.5-1.5-5.5-1.5-4 0-6.7 2.2-6.7 5.4 0 2.3 1.2 4.2 4.8 6s4.7 2.4 4.7 4.2c0 1.6-1.4 2.9-3 2.9h-.2c-3.1 0-4.8-3.2-5.4-5.8l-1.5.1.3 5.3c1.6 1.3 3.6 2.1 5.7 2.2l-2.5.9v1c1.1 0 1.2 1.9 1.2 3.2v14.2l-.6.6v1h4.9v-1l-.7-.6V31.4c3.4-.6 5.8-3 5.7-6zm-37.8 13L81 39.8v1c.5 0 .8.8.8 2.2v7.7l-.7.6v1h5v-1l-.7-.6V38.4zm-25.3 0c-1.4 0-2.5 1.6-2.9 2.7h-.1c-.1-.9-.4-1.9-.9-2.7l-3.9 1.3v1c1 0 1.3.5 1.3 3v7l-.7.6v1h5v-1l-.7-.6v-3.9c0-4.2 1.3-5.5 1.3-5.5.4.4 1 .7 1.6.7 1 0 1.8-.9 1.8-1.9.1-.9-.7-1.7-1.8-1.7zm19.8-18.5c0-3.6-1.7-5.8-4.7-5.8-1.7 0-3.4.8-4.5 2.2V5.6l-5.9 2v1.2c.9 0 1.5.6 1.5 3V29l-.8.8V31h6.1v-1.2l-.9-.8V18.5c.6-.8 1.4-1.3 2.4-1.4 1.6 0 2.3 1.2 2.3 3.6V29l-.9.8V31h6.1v-1.2l-.8-.8.1-9.1zm-17 15.8c0 1.1.9 2 2 2s2-.9 2-2-.9-2-2-2-2 .9-2 2zm1.4-5.9c-.3.1-.7 0-1-.2-.4-.5-.6-1.1-.5-1.7v-11h2.4V15h-.5c-1.5 0-1.9-.4-2-2.1V8.3l-4.3 1.5v5.3c-.5-.6-1.2-1-2-1-1.7 0-3 1.9-3.5 3.3h-.2c-.1-1.1-.5-2.2-1-3.2L47 15.8V17c1.2 0 1.6.6 1.6 3.7V29l-.9.8V31h6v-1.2l-.9-.8v-4.7c0-4.1 1-6 1.6-6.6.5.5 1.2.8 1.9.9.7 0 1.4-.4 1.8-1v9.2c0 2.1.7 4.6 3.9 4.6.7 0 1.4-.1 2.1-.4l.2-1.2zm11.8 19.9l-3.9-.2c-.2 0-.5-.1-.6-.2-.4-.6.3-.9.3-.9.8.2 1.7.3 2.5.3 2.9 0 5.3-2.3 5.4-5.1 0-1.2-.4-2.4-1.2-3.3.6 0 1.1-.3 1.6-.6l-.4-.9c-1.4.3-2.9.3-4.3-.1-.6-.1-1.1-.2-1.7-.2-2.9-.1-5.3 2.1-5.5 5v.1c-.1 1.9 1 3.6 2.7 4.4-1.6.5-2.9 1.4-2.9 2.4 0 1.3 1.5 1.6 1.7 1.6-.9.4-1.6 1.1-2 2-.4.8-.4 1.8 0 2.6.7 1.1 2.2 1.7 4.2 1.7 4.4 0 8.7-2.8 8.7-6-.2-2.2-2.7-2.4-4.6-2.6zm-2.2-9.9c1.3 0 2.1 1.6 2.1 3.9 0 2.2-.8 3.6-2 3.6s-2.1-1.3-2.1-3.5c0-1.5.3-3.9 2-4zm-1.3 16.8c-1.7.1-3.2-1-2.6-2.7.2-.6.6-1.1 1.2-1.4 0 0 1.6.1 4 .2h.4c1.1.1 1.3.8 1.3 1.2.1 1-1.4 2.6-4.3 2.7z" fill="#fff"/><path id="Path_1368" d="M124.9 13.8c.2 0 .4 0 .4-.2s-.2-.2-.3-.2h-.4v.4h.3zm.5.7h-.2l-.3-.6h-.3v.6h-.1v-1.2h.5c.1 0 .2 0 .3.1.1.1.1.1.1.2 0 .2-.2.3-.4.4 0-.1.4.5.4.5zm.4-.6c0-.6-.4-1-1-1-.5 0-1 .4-1 .9 0 .6.4 1 1 1s1-.4 1-.9zm-2 0c0-.6.5-1.1 1.1-1.1.6 0 1.1.5 1.1 1.1s-.5 1.1-1.1 1.1c-.6 0-1.1-.5-1.1-1.1z" fill-rule="evenodd" clip-rule="evenodd"/></svg>